{"title":"Back to the Future II 1989 1080p BrRip x264 AAC (ULTRAHD)","uid":12170405,"size":4446423282,"categoryP":"video","categoryS":"hd___movies","magnet":"?xt=urn:btih:66777d80dd286727db07b3eb03d01b92a9043171&amp;dn=Back+to+the+Future+II+1989+1080p+BrRip+x264+AAC+%28ULTRAHD%29&amp;tr=udp%3A%2F%2Ftracker.openbittorrent.com%3A80&amp;tr=udp%3A%2F%2Fopen.demonii.com%3A1337&amp;tr=udp%3A%2F%2Ftracker.coppersurfer.tk%3A6969&amp;tr=udp%3A%2F%2Fexodus.desync.com%3A6969","seeders":0,"leechers":0,"uploader":null,"files":2,"time":1438160926,"description":"Format                      : MPEG-4\nFormat profile              : Base Media / Version 2\nCodec ID                    : mp42\nFile size                   : 4.14 GiB\nDuration                    : 1h 47mn\nOverall bit rate            : 5 490 Kbps\nEncoded date                : UTC 2015-07-27 18:59:31\nTagged date                 : UTC 2015-07-27 18:59:31\nWriting library             : AVS \n\nVideo\nID                          : 1\nFormat                      : AVC\nFormat/Info                 : Advanced Video Codec\nFormat profile              : &lt;a class=&quot;__cf_email__&quot; href=&quot;/cdn-cgi/l/email-protection&quot; data-cfemail=&quot;db96bab2b59b97eff5e9&quot;&gt;[email&amp;#160;protected]&lt;/a&gt;&lt;script data-cfhash='f9e31' type=&quot;text/javascript&quot;&gt;\n/* &lt;![CDATA[ */!function(){try{var t=&quot;currentScript&quot;in document?document.currentScript:function(){for(var t=document.getElementsByTagName(&quot;script&quot;),e=t.length;e--;)if(t[e].getAttribute(&quot;data-cfhash&quot;))return t[e]}();if(t&amp;&amp;t.previousSibling){var e,r,n,i,c=t.previousSibling,a=c.getAttribute(&quot;data-cfemail&quot;);if(a){for(e=&quot;&quot;,r=parseInt(a.substr(0,2),16),n=2;a.length-n;n+=2)i=parseInt(a.substr(n,2),16)^r,e+=String.fromCharCode(i);e=document.createTextNode(e),c.parentNode.replaceChild(e,c)}t.parentNode.removeChild(t);}}catch(u){}}()/* ]]&gt; */&lt;/script&gt;\nFormat settings, CABAC      : Yes\nFormat settings, ReFrames   : 3 frames\nCodec ID                    : avc1\nCodec ID/Info               : Advanced Video Coding\nDuration                    : 1h 47mn\nSource duration             : 1h 47mn\nBit rate                    : 4 909 Kbps\nWidth                       : 1 920 pixels\nHeight                      : 1 080 pixels\nDisplay aspect ratio        : 16:9\nFrame rate mode             : Constant\nFrame rate                  : 23.976 fps\nColor space                 : YUV\nChroma subsampling          : 4:2:0\nBit depth                   : 8 bits\nScan type                   : Progressive\nBits/(Pixel*Frame)          : 0.099\nStream size                 : 3.70 GiB (89%)\nSource stream size          : 3.70 GiB (89%)\nLanguage                    : English\nEncoded date                : UTC 2015-07-27 18:59:31\nTagged date                 : UTC 2015-07-27 18:59:31\nColor primaries             : BT.709\nTransfer characteristics    : BT.709\nMatrix coefficients         : BT.709\n\nAudio\nID                          : 2\nFormat                      : AAC\nFormat/Info                 : Advanced Audio Codec\nFormat profile              : LC\nCodec ID                    : 40\nDuration                    : 1h 47mn\nBit rate mode               : Constant\nBit rate                    : 576 Kbps\nChannel(s)                  : 6 channels\nChannel positions           : Front: L C R, Side: L R, LFE\nSampling rate               : 48.0 KHz\nCompression mode            : Lossy\nStream size                 : 443 MiB (10%)\nLanguage                    : English","torrent":{"xt":"urn:btih:66777d80dd286727db07b3eb03d01b92a9043171","amp;dn":"Back+to+the+Future+II+1989+1080p+BrRip+x264+AAC+%28ULTRAHD%29","amp;tr":["udp%3A%2F%2Ftracker.openbittorrent.com%3A80","udp%3A%2F%2Fopen.demonii.com%3A1337","udp%3A%2F%2Ftracker.coppersurfer.tk%3A6969","udp%3A%2F%2Fexodus.desync.com%3A6969"],"infoHash":"66777d80dd286727db07b3eb03d01b92a9043171","infoHashBuffer":{"type":"Buffer","data":[102,119,125,128,221,40,103,39,219,7,179,235,3,208,27,146,169,4,49,113]},"announce":[],"urlList":[]}}